<?xml version="1.0" encoding="UTF-8"?>
<svg xmlns="http://www.w3.org/2000/svg" version="1.1" viewBox="0 0 64 64">
    <path class="cls-1" d="M44,34.3c0,2.2-.9,4.5-3.4,4.5s-3.5-1.9-3.5-4.5,1.2-4.5,3.5-4.5c2.2,0,3.4,2.2,3.4,4.5ZM32,64C14.3,64,0,49.7,0,32S14.3,0,32,0s32,14.3,32,32-14.3,32-32,32ZM46.8,34.4c0-3.7-1.9-6.8-5.8-6.8s-2.9.8-3.7,2h0v-6.5H14.1l-9.5,17.6h20.4l9.5-17.6v17.6h2.6v-1.8h0c.8,1.7,2.6,2.1,4.3,2.1,3.7,0,5.3-3.2,5.3-6.7ZM47.9,34.4c0,3.8,2.1,6.6,6,6.6s5.2-1.8,5.7-5.1h-2.7c-.3,1.8-1.4,2.9-2.9,2.9-2.4,0-3.3-2.3-3.3-4.4,0-3.9,2-4.6,3.4-4.6s2.6.8,2.8,2.4h0s2.7,0,2.7,0c-.3-3.1-2.7-4.6-5.6-4.6-4.1,0-6.1,3-6.1,6.9Z"/>
</svg>