<?xml version="1.0" encoding="UTF-8"?><svg id="Layer_1" xmlns="http://www.w3.org/2000/svg" viewBox="0 0 64 64"><path d="M46.55,64h-29.09c-9.62,0-17.45-7.83-17.45-17.45v-29.09C0,7.83,7.83,0,17.45,0h29.09c9.62,0,17.45,7.83,17.45,17.45v29.09c0,9.62-7.83,17.45-17.45,17.45ZM17.45,5.82c-6.42,0-11.64,5.22-11.64,11.64v29.09c0,6.42,5.22,11.64,11.64,11.64h29.09c6.42,0,11.64-5.22,11.64-11.64v-29.09c0-6.42-5.22-11.64-11.64-11.64h-29.09ZM32.09,46.42c-3.1,0-6.1-.99-8.63-2.86-3.12-2.32-5.15-5.7-5.72-9.55-1.18-7.93,4.32-15.35,12.25-16.52,1.41-.21,2.85-.21,4.27,0,6.38.95,11.31,5.87,12.26,12.26h0c.57,3.84-.39,7.68-2.7,10.8-2.32,3.12-5.71,5.15-9.55,5.72-.72.11-1.45.16-2.16.16ZM32.12,23.15c-.43,0-.86.03-1.28.09-4.76.71-8.06,5.15-7.35,9.91.34,2.3,1.56,4.34,3.43,5.73s4.17,1.97,6.48,1.62c2.31-.34,4.34-1.56,5.73-3.43s1.96-4.17,1.62-6.48h0c-.57-3.83-3.52-6.78-7.35-7.35-.43-.06-.85-.09-1.28-.09ZM50.94,16c0-1.61-1.3-2.91-2.91-2.91h-.03c-1.61,0-2.89,1.3-2.89,2.91s1.32,2.91,2.92,2.91,2.91-1.3,2.91-2.91Z"/></svg>