<?xml version="1.0" encoding="UTF-8"?><svg id="Layer_1" xmlns="http://www.w3.org/2000/svg" viewBox="0 0 64 64.27"><path d="M31.94,64.27c-6.65,0-13.12-2.08-18.62-6.06h0C6.38,53.2,1.8,45.78.43,37.31c-1.38-8.47.61-16.97,5.6-23.93C11.02,6.4,18.42,1.8,26.86.42c8.43-1.38,16.89.63,23.82,5.63,6.94,5.01,11.52,12.44,12.89,20.91,1.38,8.47-.61,16.97-5.6,23.93-4.99,6.97-12.39,11.57-20.83,12.95-1.74.28-3.48.42-5.2.42ZM14.6,56.44c6.46,4.67,14.34,6.53,22.18,5.25,7.86-1.28,14.75-5.57,19.4-12.06,9.6-13.4,6.55-32.15-6.8-41.79-6.46-4.67-14.34-6.53-22.18-5.25-7.86,1.28-14.75,5.57-19.4,12.06C-1.79,28.05,1.26,46.79,14.6,56.44h0ZM43,46.92c1.96-.57,3.34-1.97,3.9-3.93l.17-.58.02-15.5c.02-11.61,0-15.57-.06-15.79-.07-.23-.18-.42-.32-.57-.21-.13-.46-.19-.74-.19-.19,0-.87.09-1.5.21-2.79.51-19.22,3.78-19.5,3.88-.43.16-.86.54-1.07.95l-.17.34s-.08,24.29-.21,24.56c-.19.42-.62.81-1.01.94-.19.06-.92.22-1.63.37-3.3.66-4.52,1.13-5.56,2.15-.59.58-1.02,1.37-1.21,2.19-.18.79-.12,1.97.14,2.69.27.75.7,1.39,1.27,1.9.51.4,1.12.69,1.8.87,1.51.39,4.33-.04,5.78-.88.6-.35,1.38-1.08,1.78-1.68.16-.24.4-.72.54-1.07.47-1.22.49-22.98.55-23.26.1-.47.42-.81.86-.92.39-.1,16.22-3.23,16.66-3.29.39-.05.76.07.96.32.12.06.22.15.29.26.13.19.14.57.16,7.46.02,7.93.03,7.74-.4,8.24-.31.36-.7.5-2.31.83-2.45.5-3.28.74-4.22,1.19-1.17.57-1.82,1.2-2.32,2.24-.36.74-.49,1.29-.49,2.02,0,1.31.45,2.33,1.47,3.33.09.09.19.18.28.26.51.4,1.04.64,1.69.79.99.23,3.01.08,4.4-.33Z"/></svg>