<?xml version="1.0" encoding="UTF-8"?>
<svg xmlns="http://www.w3.org/2000/svg" version="1.1" viewBox="0 0 64 64.3">
  <!-- Generator: Adobe Illustrator 28.6.0, SVG Export Plug-In . SVG Version: 1.2.0 Build 709)  -->
  <g>
    <g id="Layer_1">
      <path d="M31.9,64.3c-6.6,0-13.1-2.1-18.6-6.1h0C6.4,53.2,1.8,45.8.4,37.3c-1.4-8.5.6-17,5.6-23.9C11,6.4,18.4,1.8,26.9.4c8.4-1.4,16.9.6,23.8,5.6,6.9,5,11.5,12.4,12.9,20.9,1.4,8.5-.6,17-5.6,23.9-5,7-12.4,11.6-20.8,13-1.7.3-3.5.4-5.2.4h0ZM43,46.9c2-.6,3.3-2,3.9-3.9l.2-.6v-15.5c0-11.6,0-15.6,0-15.8,0-.2-.2-.4-.3-.6-.2-.1-.5-.2-.7-.2s-.9,0-1.5.2c-2.8.5-19.2,3.8-19.5,3.9-.4.2-.9.5-1.1.9l-.2.3s0,24.3-.2,24.6c-.2.4-.6.8-1,.9-.2,0-.9.2-1.6.4-3.3.7-4.5,1.1-5.6,2.2-.6.6-1,1.4-1.2,2.2-.2.8-.1,2,.1,2.7.3.8.7,1.4,1.3,1.9.5.4,1.1.7,1.8.9,1.5.4,4.3,0,5.8-.9.6-.3,1.4-1.1,1.8-1.7.2-.2.4-.7.5-1.1.5-1.2.5-23,.5-23.3.1-.5.4-.8.9-.9.4-.1,16.2-3.2,16.7-3.3.4,0,.8,0,1,.3.1,0,.2.1.3.3.1.2.1.6.2,7.5,0,7.9,0,7.7-.4,8.2-.3.4-.7.5-2.3.8-2.5.5-3.3.7-4.2,1.2-1.2.6-1.8,1.2-2.3,2.2-.4.7-.5,1.3-.5,2,0,1.3.5,2.3,1.5,3.3,0,0,.2.2.3.3.5.4,1,.6,1.7.8,1,.2,3,0,4.4-.3h0Z"/>
    </g>
  </g>
</svg>