<?xml version="1.0" encoding="UTF-8"?>
<svg xmlns="http://www.w3.org/2000/svg" version="1.1" viewBox="0 0 2989 1681">
  <!-- Generator: Adobe Illustrator 29.0.1, SVG Export Plug-In . SVG Version: 2.1.0 Build 192)  -->
  <defs>
    <style>
      .st0 {
        fill: #fff;
        opacity: 0;
      }
    </style>
  </defs>
  <g id="tape">
    <polygon class="st0" points="2653.4 1154.6 2620.1 1137.6 2513.3 1083.4 2281.8 1088.6 2010.7 1094.7 2004 1148.4 2014.7 1216.1 2100.5 1332.5 2661.9 1318.3 2670.9 1207.9 2653.4 1154.6"/>
  </g>
  <g id="typewriter">
    <path class="st0" d="M1499.1,798.5c-4.2,0-287.2,7.6-287.2,7.6l-50,205.8v247.3l659.9-7.6,13.6-35.6,4.2-160.1-66.1-244-72.8-5.9-57.6-14.7-144,7.1Z"/>
  </g>
  <g id="folder">
    <polyline class="st0" points="1083.5 1285 1162 1442.3 1357.7 1431.3 1702.4 1497.4 1904 1373.7 1926.9 1377.1 1999.7 1323.7 1893.9 1266.1 1563.5 1254.7 1162 1259.3 1147.3 1259.3 1083.5 1285"/>
  </g>
  <g id="viewfinder">
    <polygon class="st0" points="966.3 1125.5 962.1 1102.6 951.9 1064.5 923.1 1071.3 918 1050.1 899.4 1062 899.4 1039.1 847.7 1045.9 820.6 1060.3 794.4 1056 757.1 1067.1 727.5 1053.5 699.5 1057.7 678.3 1082.3 692.7 1138.2 678.3 1151.8 688.3 1177.1 698.7 1203.4 715.6 1203.4 742.7 1266.1 928.2 1223.8 932.7 1216.5 935 1212.7 929.1 1152.6 966.3 1125.5"/>
  </g>
  <g id="paper">
    <path class="st0" d="M932.7,1216.5l-4.5,7.3-185.5,42.4-27.1-62.7h-16.9l-10.4-26.3h0s-284.4,108.5-281.9,107.7c2.5-.8,423.5,102.5,423.5,102.5l332-133.8-229.3-36.9Z"/>
  </g>
  <g id="light">
    <polygon class="st0" points="1863.4 1077.2 1860 1123.8 1934.5 1130.6 1934.5 1083.4 1863.4 1077.2"/>
  </g>
  <g id="radio">
    <path class="st0" d="M2705.3,810.1c-1.7-.6-467.6-18.6-467.6-18.6l-14.1,268.8,58.2,28.4h0l231.5-5.2,106.7,54.2,68.9-25.4,16.4-302.1Z"/>
  </g>
</svg>