<?xml version="1.0" encoding="UTF-8"?>
<svg xmlns="http://www.w3.org/2000/svg" version="1.1" viewBox="0 0 64 64">
  <!-- Generator: Adobe Illustrator 28.6.0, SVG Export Plug-In . SVG Version: 1.2.0 Build 709)  -->
  <g>
    <g id="Layer_1">
      <path class="cls-1" d="M0,31.9c0,17.6,14.5,32.1,32,32.1s32-14.5,32-32.1S49.5,0,32,0,0,14.3,0,31.9ZM43.8,46.8c-7.4-4.6-17-5.7-28-3.2-2.7.4-3-3.4-.8-3.8,12.2-2.9,22.5-1.5,30.9,3.6,2.1,1.3,0,4.6-2.1,3.4ZM47,38.2c-8.6-5.3-21.7-6.9-31.8-3.8-3.2,1-4.4-4-1.3-4.8,11.6-3.4,25.9-1.7,35.8,4.4,2.7,1.7,0,5.9-2.7,4.2ZM13.7,24.6c-3.2,1.1-5.3-4.4-1.7-5.7,11.2-3.4,30.3-2.9,42.1,4.2,3.2,1.7.2,7.1-3.2,5.2-10.3-6.1-27.4-6.7-37.1-3.6Z"/>
    </g>
  </g>
</svg>