<?xml version="1.0" encoding="UTF-8"?><svg id="Layer_1" xmlns="http://www.w3.org/2000/svg" viewBox="0 0 240 240"><path d="M121.73,239.84c-1.6.03-3.2.13-4.78.1s-3.22.38-4.81.28-3.12-1.1-4.7-1.26-3.27.43-4.84.2-3.2-.34-4.76-.62-3.12-.78-4.67-1.13-3.1-.8-4.64-1.21-3.16-.63-4.68-1.1-3.06-.98-4.56-1.52-2.95-1.28-4.42-1.88-2.97-1.22-4.41-1.88-2.73-1.7-4.15-2.42-2.74-1.63-4.13-2.41-2.9-1.36-4.25-2.19-2.64-1.8-3.96-2.69-2.4-2.12-3.69-3.05-3.05-1.26-4.29-2.25-2.24-2.31-3.44-3.35-2.37-2.13-3.53-3.22-2.47-2.03-3.6-3.16-2.02-2.48-3.1-3.66-2.22-2.29-3.25-3.51-1.93-2.53-2.92-3.79-2.21-2.33-3.15-3.62-1.92-2.56-2.81-3.88-1.15-3.04-1.99-4.4-1.61-2.73-2.39-4.12-1.93-2.57-2.66-3.99-1.49-2.82-2.16-4.27-1.36-2.89-1.97-4.36-1.13-2.98-1.69-4.48-.81-3.09-1.31-4.61-.89-3.05-1.33-4.58-.72-3.09-1.1-4.64-.99-3.03-1.3-4.6-.35-3.16-.6-4.74-1.19-3.05-1.38-4.64.22-3.22.1-4.82,0-3.18-.07-4.77-.59-3.17-.58-4.77.5-3.17.58-4.76.11-3.17.25-4.76-.39-3.25-.18-4.83.66-3.13.93-4.71.99-3.05,1.33-4.61.42-3.17.82-4.72.62-3.14,1.09-4.67,1.58-2.83,2.11-4.34.62-3.16,1.21-4.65,1.14-2.98,1.79-4.44c.63-1.48,1.44-2.87,2.13-4.32s1.79-2.68,2.54-4.09,1.13-3.03,1.93-4.42,1.83-2.64,2.69-3.98,1.97-2.52,2.89-3.83,1.46-2.89,2.43-4.17,1.77-2.69,2.8-3.93,2.25-2.3,3.32-3.49,2.51-2.03,3.63-3.18,2.22-2.29,3.39-3.39,1.92-2.64,3.13-3.7,2.29-2.28,3.54-3.29,2.54-1.99,3.82-2.95,2.98-1.35,4.3-2.26,2.36-2.24,3.72-3.1,2.98-1.28,4.36-2.08,2.84-1.47,4.25-2.22,2.77-1.61,4.22-2.3,3.06-.98,4.54-1.61,2.74-1.75,4.23-2.32,3.17-.64,4.69-1.15,3-1.1,4.54-1.55,3.11-.71,4.66-1.1,3.03-1.06,4.6-1.38,3.15-.55,4.73-.8,3.09-1.06,4.68-1.25,3.23.02,4.83-.1c1.58-.15,3.15-.56,4.72-.64s3.18-.14,4.76-.16,3.16.62,4.74.67,3.21-.54,4.78-.42,3.13.63,4.7.81,3.08.79,4.64,1.04,3.25-.2,4.8.11,3.04.96,4.58,1.33,3.1.69,4.62,1.13,3.12.66,4.62,1.16,2.95,1.2,4.43,1.76,3.05.95,4.5,1.56,2.71,1.72,4.14,2.39,2.95,1.19,4.35,1.92,2.49,2.03,3.86,2.82,3.1.97,4.44,1.81,2.47,2.02,3.78,2.9,2.73,1.62,4,2.56,2.27,2.24,3.5,3.23,2.77,1.61,3.97,2.64,1.95,2.55,3.11,3.63,2.73,1.72,3.85,2.84,2.04,2.43,3.11,3.6,1.91,2.52,2.94,3.73,2.14,2.32,3.12,3.57,1.94,2.49,2.87,3.77,1.97,2.48,2.85,3.8,1.79,2.61,2.61,3.96,1.9,2.56,2.68,3.94,1.32,2.89,2.04,4.31,1.65,2.73,2.31,4.17.47,3.24,1.08,4.71,1.63,2.75,2.17,4.24,1.14,2.95,1.63,4.46.77,3.07,1.19,4.6.95,3.02,1.31,4.56.43,3.14.73,4.69,1.16,3.01,1.39,4.58-.13,3.21.04,4.78.88,3.1.99,4.68-.38,3.18-.34,4.77.15,3.15.13,4.74.27,3.17.18,4.76-.87,3.1-1.02,4.68c-.13,1.59.33,3.23.14,4.8s-.65,3.12-.91,4.68-.9,3.06-1.22,4.61-.04,3.25-.42,4.79-.94,3.05-1.39,4.56-.76,3.1-1.26,4.6-1.56,2.82-2.13,4.29-1.39,2.85-2.01,4.3-1.01,3.02-1.69,4.45-.88,3.12-1.62,4.52-2.22,2.4-3.02,3.77-1.18,2.99-2.03,4.33-1.67,2.71-2.57,4.01-2.07,2.42-3.02,3.69-2.2,2.3-3.2,3.53-1.46,2.93-2.51,4.11-2.42,2.09-3.52,3.24-2.5,1.97-3.64,3.08-1.69,2.84-2.87,3.9-2.77,1.66-3.99,2.67-2.52,1.91-3.78,2.87-2.16,2.43-3.46,3.34-2.83,1.49-4.16,2.35-2.67,1.71-4.04,2.52-2.9,1.3-4.3,2.05-2.53,2.02-3.96,2.71-3.19.66-4.64,1.3-2.65,1.89-4.12,2.47-2.94,1.24-4.44,1.76-3.21.38-4.73.84-3.03.9-4.56,1.3-3,1.08-4.55,1.42-3.08.82-4.64,1.09-3.23-.18-4.81.03-3.05,1.26-4.63,1.41-3.22-.67-4.81-.59-3.14.56-4.73.58c-.13,0-.1-.1-.2-.1ZM120.17,201.95c1.62-.03,3.21-.2,4.79-.31s3.15-.74,4.71-.93,3.31.44,4.87.16,3-1.37,4.54-1.73,3.05-.91,4.57-1.36,3.09-.78,4.58-1.32,3.01-1.07,4.46-1.69,2.8-1.52,4.22-2.23,2.81-1.48,4.18-2.27,2.81-1.49,4.14-2.37,2.61-1.82,3.87-2.78,2.75-1.67,3.96-2.7,2.53-1.99,3.67-3.09,2.08-2.44,3.16-3.62,2.22-2.31,3.22-3.55,2.29-2.29,3.22-3.58,1.16-3.08,2.01-4.42,2-2.52,2.77-3.91,1.55-2.8,2.24-4.24,1.13-2.99,1.74-4.46,1.44-2.87,1.97-4.37.9-3.07,1.34-4.6.97-3.05,1.32-4.61.33-3.19.59-4.76.39-3.16.57-4.74,1-3.13,1.08-4.72.14-3.21.13-4.81-.52-3.19-.62-4.78-.32-3.17-.51-4.76-.48-3.15-.77-4.72-.55-3.14-.93-4.69-.53-3.17-1-4.7-.93-3.07-1.49-4.57-1.07-3.03-1.72-4.49-1.6-2.78-2.35-4.2-1.31-2.93-2.14-4.31-2.3-2.3-3.21-3.63-1.39-2.92-2.38-4.19-1.86-2.62-2.92-3.82-2.52-2-3.66-3.15-1.97-2.55-3.17-3.63-2.45-2.05-3.71-3.05-2.93-1.39-4.24-2.33-2.47-1.98-3.83-2.85-2.48-2.04-3.88-2.84c-1.41-.81-3-1.32-4.48-2.04s-3.04-1.17-4.57-1.78-2.83-1.79-4.39-2.31-3.27-.52-4.85-.94-3.18-.72-4.79-1.05-3.18-.75-4.81-.99-3.21-.84-4.84-.98-3.3.24-4.94.19-3.28-.25-4.92-.2-3.31-.11-4.94.04-3.21.84-4.82,1.09-3.18.8-4.77,1.15-3.24.53-4.8.98-3.3.52-4.83,1.08c-1.51.57-2.99,1.21-4.43,1.84s-2.66,1.88-4.07,2.58-2.73,1.65-4.1,2.42-2.76,1.57-4.09,2.42-3.05,1.19-4.33,2.11-2.25,2.32-3.48,3.31-2.77,1.67-3.94,2.73-2.42,2.11-3.53,3.23-2.09,2.43-3.13,3.62-2.38,2.2-3.35,3.45-1.46,2.9-2.34,4.21-2.18,2.41-2.98,3.78-1.49,2.85-2.21,4.26-1.55,2.82-2.19,4.27-.92,3.08-1.47,4.57-1.1,3-1.56,4.52-.29,3.21-.65,4.76-1.03,3.03-1.3,4.59-.2,3.18-.38,4.76-.3,3.15-.39,4.74-.75,3.16-.75,4.75.72,3.16.81,4.75-.14,3.19.04,4.78,0,3.22.27,4.79,1.3,2.99,1.65,4.54.45,3.16.89,4.69,1.01,3.01,1.54,4.51,1.33,2.88,1.94,4.35,1.09,2.98,1.78,4.41,1.61,2.72,2.39,4.12,1.16,3,2.01,4.34,1.92,2.53,2.86,3.83,1.41,2.94,2.43,4.17,2.6,1.96,3.69,3.13,1.92,2.56,3.08,3.66,2.48,1.99,3.7,3.02,2.2,2.35,3.48,3.31,2.86,1.45,4.2,2.32,2.36,2.23,3.75,3.03,3.08.97,4.52,1.68,2.76,1.57,4.24,2.2,2.85,1.44,4.36,1.98,3.06.87,4.6,1.32,3.06.84,4.63,1.2,3.13.52,4.71.8,3.13.45,4.73.65,3.17.04,4.77.16,3.15.44,4.76.48c.13.01.08.31.18.31ZM230.34,86.54c-.41-1.54-.95-3.05-1.42-4.55s-1.44-2.86-1.99-4.34-.31-3.29-.93-4.75-1.98-2.59-2.67-4.02-1.53-2.76-2.28-4.16-1.38-2.85-2.19-4.21-1.6-2.73-2.47-4.05-1.98-2.47-2.91-3.75-1.89-2.52-2.88-3.76-1.86-2.56-2.9-3.75-2.12-2.34-3.21-3.49-1.93-2.54-3.07-3.64-2.18-2.32-3.36-3.38-2.56-1.89-3.79-2.9-2.4-2.08-3.66-3.04-2.33-2.2-3.64-3.11-3.07-1.11-4.41-1.96-2.49-2-3.86-2.8-2.74-1.6-4.14-2.34-2.92-1.25-4.35-1.93-2.76-1.6-4.21-2.23-2.97-1.13-4.45-1.7-2.93-1.24-4.43-1.75-3.11-.67-4.63-1.12-3.06-.78-4.6-1.18-2.92-1.43-4.48-1.76-3.12-.65-4.69-.92-3.21-.05-4.78-.26-3.15-.31-4.74-.45-3.16-.2-4.75-.27-3.16-.19-4.75-.2-3.18-.27-4.76-.22-3.18.07-4.77.2-3.18.16-4.76.35-3.11.69-4.68.94-3.18.3-4.73.62-2.93,1.39-4.48,1.77-3.21.26-4.73.72-3.1.75-4.6,1.27-2.81,1.55-4.29,2.13-3.11.78-4.57,1.42-2.86,1.38-4.29,2.09-2.49,2.06-3.89,2.83-2.85,1.36-4.22,2.18-2.92,1.3-4.25,2.18-2.46,2.01-3.75,2.94-2.41,2.05-3.67,3.03-2.89,1.46-4.11,2.5c-1.19,1-2.04,2.4-3.18,3.45s-2.22,2.17-3.32,3.27-2.29,2.1-3.35,3.24-2.42,2.02-3.43,3.2-1.65,2.68-2.61,3.9-2.08,2.33-3,3.59-2.03,2.39-2.9,3.68-1.29,2.88-2.1,4.2-1.37,2.79-2.13,4.15-1.68,2.62-2.38,4.01-1.8,2.6-2.43,4.01-1.22,2.89-1.78,4.33-.52,3.13-1.02,4.59-.74,3.01-1.16,4.5c-.34,1.17.38.63,1.3.58,1.48,0,2.97.66,4.45.66s2.96-.54,4.44-.54,2.96.48,4.44.49,2.96.12,4.44.12,2.96-.16,4.44-.16,2.97.4,4.45.39c1.2-.02,1.89-1.34,2.34-2.38.67-1.49,1.83-2.72,2.57-4.15s1.42-2.9,2.24-4.3,1.81-2.68,2.7-4.02,1.55-2.86,2.52-4.15,2.02-2.53,3.06-3.77,1.68-2.86,2.79-4.04,2.52-2.09,3.69-3.21,2.19-2.43,3.42-3.48,2.51-2.08,3.8-3.06,2.97-1.42,4.32-2.32,2.36-2.34,3.76-3.17,3-1.3,4.44-2.04,3.06-1.08,4.55-1.75,2.69-1.97,4.21-2.55,3.15-.83,4.7-1.34,3.07-1.05,4.65-1.47,3.09-1.04,4.69-1.38,3.22-.45,4.84-.71c1.56-.24,3.12-.65,4.68-.79s3.18.26,4.76.21,3.15-.27,4.73-.23,3.11.74,4.68.87,3.21-.43,4.77-.21,3.06.84,4.6,1.13,3.13.42,4.66.8,2.93,1.21,4.43,1.67,3.15.48,4.63,1.02,2.71,1.7,4.16,2.31,3.14.69,4.55,1.39,2.7,1.63,4.08,2.4,2.58,1.8,3.92,2.64,2.72,1.58,4,2.49,2.55,1.84,3.78,2.82,2.54,1.86,3.72,2.91,2.37,2.08,3.49,3.19,2.44,2.04,3.49,3.22,1.9,2.54,2.88,3.77c.93,1.16,2.06,2.19,2.93,3.4s.97,2.94,1.78,4.19,1.99,2.26,2.73,3.55,1.53,2.55,2.21,3.89,1.16,2.73,1.78,4.1c.48,1.51,1.83,2.2,3.4,2.02,1.48,0,2.97.25,4.46.25s2.97-.6,4.46-.61,2.97.57,4.46.57,2.97-.58,4.46-.58,2.97.56,4.46.56,2.97-.11,4.46-.12c.43-.02.61-.38.79-.56.11-.07.39.22.37.16ZM9.51,152.96c.44,1.56,1.02,3.1,1.53,4.64s1.5,2.91,2.07,4.42.37,3.36,1.01,4.85,2.03,2.65,2.73,4.11,1.57,2.83,2.34,4.26,1.41,2.92,2.24,4.31,1.63,2.8,2.52,4.16,2.01,2.54,2.95,3.86,1.92,2.59,2.92,3.87,1.89,2.63,2.95,3.86,2.15,2.41,3.26,3.6,1.97,2.61,3.13,3.74,2.22,2.38,3.43,3.47,2.61,1.95,3.86,2.98,2.45,2.13,3.75,3.11,2.4,2.24,3.74,3.17,3.14,1.13,4.52,2,2.56,2.02,3.98,2.82,2.82,1.61,4.27,2.35,3,1.24,4.48,1.91,2.85,1.58,4.36,2.19,3.06,1.09,4.59,1.64,3.02,1.19,4.58,1.67,3.2.61,4.77,1.02,3.15.71,4.75,1.06,3.04,1.35,4.64,1.64,3.21.56,4.83.78,3.27-.05,4.9.11,3.23.2,4.86.3,3.23.1,4.87.12,3.23.09,4.87.06,3.25.18,4.88.09,3.25-.15,4.87-.31c1.59-.16,3.2-.23,4.77-.46s3.12-.76,4.68-1.06,3.19-.38,4.73-.74,2.91-1.47,4.44-1.89,3.22-.35,4.73-.85,3.1-.84,4.58-1.4,2.79-1.63,4.25-2.25,3.11-.87,4.54-1.55,2.84-1.47,4.25-2.21,2.45-2.13,3.83-2.93,2.83-1.44,4.17-2.3,2.9-1.39,4.2-2.3,2.42-2.09,3.69-3.05,2.37-2.12,3.59-3.14,2.86-1.56,4.04-2.63,2.01-2.51,3.15-3.62,2.2-2.29,3.29-3.45,2.27-2.23,3.32-3.43,2.4-2.15,3.39-3.4,1.6-2.79,2.54-4.08,2.03-2.46,2.92-3.78,1.98-2.52,2.82-3.88,1.21-2.98,1.99-4.37,1.29-2.91,2.01-4.33,1.61-2.74,2.27-4.2,1.73-2.72,2.33-4.2,1.14-2.99,1.68-4.49.45-3.2.92-4.72c.27-.92.39-.95-.6-.98-1.53,0-3.05-.03-4.58-.03s-3.06-.67-4.59-.67-3.06.54-4.59.54-3.06-.48-4.59-.48-3.06-.11-4.59-.11-3.06.16-4.58.17c-1.4-.02-2.62.84-3.09,2.04-.71,1.62-.95,3.43-1.75,4.99s-2.09,2.86-2.98,4.37-1.73,3.04-2.72,4.49-2.14,2.75-3.23,4.14c-.98,1.25-1.73,2.67-2.78,3.86s-2.16,2.32-3.27,3.45-1.83,2.68-3,3.75-2.6,1.87-3.82,2.88-2.29,2.24-3.56,3.19-2.58,1.89-3.9,2.76-3,1.2-4.37,2-2.44,2.16-3.85,2.89-3.01,1.09-4.46,1.74-3.06.88-4.55,1.44-2.74,1.78-4.26,2.26-3.14.61-4.68,1-3.07.82-4.63,1.12c-1.6.35-3.18.9-4.78,1.15s-3.28.27-4.9.42-3.27.47-4.9.52-3.28-.45-4.91-.5-3.28.07-4.9-.08-3.17-.96-4.78-1.19-3.34.19-4.94-.14-3.11-1.07-4.68-1.49-3.21-.67-4.76-1.18-2.94-1.46-4.46-2.05-3.22-.77-4.7-1.44-2.67-1.95-4.12-2.71-3.18-.99-4.58-1.83-2.66-1.91-4.02-2.82-2.52-2.07-3.83-3.05-2.67-1.87-3.92-2.92-2.47-2.12-3.66-3.24-2.46-2.15-3.58-3.34-2.26-2.36-3.32-3.61-2.33-2.34-3.31-3.64-1.74-2.79-2.64-4.15-1.99-2.63-2.81-4.04-.8-3.27-1.53-4.74-1.85-2.72-2.49-4.23c-.51-1.56-2-2.08-3.56-1.92-1.67,0-3.34-.16-5.01-.16s-3.34.15-5,.15-3.34-.26-5-.26-3.34.6-5,.6-3.34-.57-5-.57c-.79.03-1.5.39-2.09.76-.11.06-.42-.32-.41-.27ZM202.06,147.72c.36.39,1.33.24,1.88.27,1.72,0,3.44-.47,5.17-.47s3.44.88,5.17.88,3.44-.78,5.17-.78,3.45-.14,5.17-.14,3.45.18,5.17.18c.7,0,1.39.18,1.86-.34.47-1.59.63-3.2,1.01-4.82s.68-3.21.97-4.84.69-3.22.88-4.87.32-3.28.43-4.93.56-3.28.59-4.94.21-3.32.17-4.97-.38-3.3-.49-4.95-.14-3.31-.32-4.96-.01-3.35-.26-4.98-1.32-3.14-1.63-4.76-.27-3.32-.63-4.93c-.23-1.35-1.4-1.98-2.7-1.88-1.71,0-3.42.24-5.14.24s-3.43-.28-5.14-.28-3.43.11-5.14.11-3.42-.13-5.14-.13-3.42.34-5.13.34c-.64.03-1.46-.16-1.82.37-.12.21-.75.51-.65.88.49,1.49.91,2.97,1.32,4.45s1.23,2.9,1.56,4.4.7,3.04.95,4.56.51,3.08.68,4.61.22,3.11.3,4.66-.17,3.11-.18,4.66-.13,3.09-.23,4.64c-.09,1.46-.33,2.89-.5,4.36s-.09,2.93-.33,4.39-.76,2.82-1.07,4.27.06,3.02-.32,4.45-1.32,2.67-1.76,4.08c-.1.37-.34.77-.24.98,0,.11.35.13.38.17ZM38.14,91.8c-.41-.41-1.41-.2-2.02-.24-1.72,0-3.43.47-5.15.47s-3.43-.88-5.15-.88-3.43.78-5.15.78-3.43.14-5.15.14-3.43-.18-5.15-.19c-.71,0-1.42-.16-1.89.36-.46,1.58-.62,3.2-.99,4.81s-.68,3.21-.96,4.84-.69,3.22-.89,4.86-.33,3.27-.45,4.92-.58,3.27-.62,4.93-.23,3.31-.2,4.96.36,3.3.46,4.95.12,3.31.29,4.95-.01,3.35.22,4.98,1.3,3.14,1.6,4.77.25,3.32.61,4.93c.25,1.45,1.41,2.02,2.78,1.91,1.7,0,3.4-.24,5.1-.24s3.4.28,5.1.28,3.4-.11,5.1-.11,3.4.13,5.1.13,3.4-.34,5.09-.34c.63-.02,1.36.12,1.75-.37.14-.21.78-.48.69-.85-.46-1.5-.86-2.98-1.25-4.48s-1.19-2.91-1.5-4.43-.66-3.05-.9-4.58-.49-3.08-.64-4.62-.2-3.11-.27-4.66.19-3.11.2-4.66.15-3.09.25-4.64c.09-1.46.35-2.9.52-4.36s.1-2.93.35-4.39.77-2.82,1.09-4.26-.04-3.03.35-4.45,1.34-2.66,1.8-4.07c.1-.37.35-.75.26-.96,0-.11-.34-.15-.38-.19Z"/><path d="M154.39,149.08c-1.03-.68-1.99-2.07-3.39-2.32-1.93-.26-3.57-1.63-4.13-3.41-.36-1.76.44-3.94-1.23-5.05-.36-.33-.27-.09.16-.18,1.62-.18,3.32-.31,4.89-.82s2.84-1.88,4.4-2.35c1.13-.37,2.44.13,3.49.68,1.35.67,2.55,1.65,3.9,2.36s2.87,1.07,4.22,1.74c.74.49,3.53.67,1.82-.72-1.43-.88-3.15-1.38-4.69-2.16s-2.88-1.7-4.33-2.61c-1.11-.86,2.53-2.22,3.22-2.16,1.9.27,3.88.29,5.78.71s3.71,1.02,5.65.93c.56.05,2.42-.18,1.34-.86-.83-.44-2.66.43-3.29-.47-.25-.27-.13-.96-.48-1.04-.26-.03-.83-.15-1.04.03-1.1,1.21-2.59.92-3.98.67-.68-.29-1.54-.7-1.6-1.6.03-.19-.43-.54-.22-.77.94-.87,1.98-1.62,2.88-2.52s1.95-1.58,3.01-2.28c.82-.52,2.07-.35,2.8-.93.53-1-2.37-.53-.97-1.91,1.19-1.35,3.71-.49,5.07-1.34,1-.74-.87-1.45-1.38-1.44-1.51,0-.34-.31.34-.79.8-.66,1.68-1.42,2.71-1.46.57-.04,1.46.17,1.74-.27.12-.19.21-.76-.1-.89-1.95-.41-2.55.41-.93-1.56.63-.82.83-2.03,1.4-2.85.29-.46.76-.47.54-.52-.55-.02-1.08.55-1.49.93-1.02.95-1.76,2.34-2.77,3.48s-2.47,1.77-3.56,2.6c-.63-.1-.3-1.29-.61-1.74-.45-.9-.58-.11-.64.62-.11.76-.86,1.46-1,2.22-.18,1.6-.74,2.95-1.87,4.18-1.54,1.58-3.16,3.33-4.94,4.67-.57.35-.75-.9-.73-1.52,0-.92-.03-1.9-.48-2.05-.08-.03-.35-.52-.44-.47-1.26,1.4-.13,4.52-1.2,6.08-1.24,1.29-2.48,2.73-4.13,3.49s-3.66.71-5.26,1.37c-.99.41-1.28.24-1.11-.83.15-1.36-.14-2.77,0-4.14s.52-2.69.69-4.07c.1-.74.65-1.62,1.51-1.48,1.71.44,2.81.86,3.86.6s2.21-.74,3.38-2.1c.7-.6,1.74-.68,2.27-1.36.3-.37.07-1.15.25-1.6.58-1.57,1.49-2.98,2.51-4.25s2.02-2.65,3.17-3.79c.43-.38,1.19-.46,1.72-.51,1.39-.05,3.05.64,4.18-.31.98-.92,1.88-1.95,3.29-2.23,1.22-.33,2.5-.7,3.52-1.41s1.77-1.96,2.86-2.51c1.59-.36,1,2.25.48,4.95-.45,2.37-1.01,4.92-1.02,5.66-.12.69.55,1.34.75,2.01.39,1.07.95,2.11.37,3.14-.88,1.5-1.65,3.65-3.35,4.37-.72.33-1.74-.04-2.49.23-1.18.45-2.88,1.13-3.31,2.36-.16,1.25,1.15,1.4,2.57,1.74,1.29.31,2.8.59,3.5,1.11.6.25.69.94.34,1.58-.84,1.41-1.83,2.81-2.72,4.13-.66.98-1.21,2.35-2.31,2.61-.89.25-2.39-.38-3.05.3-.34.33.15,1.18.05,1.65-.26,1.67-1.78,4.31-3.57,4.45-1.87.01-4.37-1.25-5.14,1.13-.72,1.42-1.28,3.74-2.85,4.4-1.07.2-2.56.46-3.66.28-1.29-.38-2.48-.86-3.88-.81-.42-.01-1.08-.33-1.45-.49-.09-.09.25-.41.18-.46ZM156.17,137.83c-.51.32-2.41.66-.87,1.52.52.17,1.55-.35,2.07.03,1.44.69,2.55,3.34,4.33,2.9.13-.06.16-.49.1-.68-.23-.74-.75-1.39-1.33-1.84-1.2-.87-2.84-1.01-4.26-1.4-.12-.04,0-.55-.04-.53ZM161.82,144.79c-.55,1.8-.14,3.11.94,3.55.68-1.1.23-2.76-.94-3.55Z"/><path d="M69.23,111.4c.36.13.61.41.89.69.93,1.03,1.72,2.21,2.61,3.28s2.32,1.87,2.77,3.23c.41.92.22,2.58,1.21,3.17,1,.38,2.17.62,2.88,1.58.74.87,1.68,1.71,2.84,1.74.82.06,1.74-.06,2.52-.2,1.89-.44,1.63,3.53,2.04,4.75.06,1.67.38,3.55,0,5.16-.24.31-.72.07-1.1-.07-1.34-.53-2.65-1.06-3.91-1.7s-2.68-1.08-3.89-1.83c-1.87-1.27-1.47-4.09-1.81-6.09-.1-.58-.02-1.57-.28-1.64-1.46-.02.17,4.89-1.39,4.43-.47-.17-1.01-.47-1.4-.87-.94-1.11-2.35-1.84-3.34-2.94s-1.65-2.48-2.41-3.73c-.72-1.31-.17-3.16-.93-4.38-1.07-.64-.63,1.95-.98,2.1-.34.19-.41-.45-.68-.7-.98-1.05-2.23-1.79-3.17-2.8s-2.05-1.96-3-2.96c-.24-.24-.32-.42-.58-.38-.61.33.56,2.14,1.03,2.7.59.76,2.46,2.29,1.11,2.48-.49.07-1.08-.11-1.52.08-.64.28-.43.56.11.72,1.53.4,3.63-.14,4.73,1.12.28.32.54.66.48,1.15-.02.59-2.65-.24-2.1.76,1.2,1.11,3.2.51,4.49,1.55.34.26,1.1.64.99,1.09-.09.31-1.35.13-1.58.39-.36.56,1.02,1.08,1.41,1.17,2.2.24,3.21,2.45,4.73,3.83.68.87,2.52,1.37,2.71,2.48-.34.69-1.61.58-2.27.85-1.27.27-2.97,1.37-4,.23-.32-.34-.45-.59-.83-.13-.41.48-1.05.82-1.71.93-.44.12-2.31.51-1.69,1.21,1.75.34,3.66.23,5.47-.08s3.51-1.08,5.2-1.55c.56-.16,1.16.1,1.73.13,1.15.05,1.89.92,2.93,1.52.49.33,1.04.27.59.72-1.35.86-2.82,1.51-4.24,2.27s-2.87,1.49-4.24,2.28c-.25.15-.51.55-.63.77-.26,1.13,2.01.1,4.33-1.13,2-1.06,4.21-1.99,4.61-2.18,1.82-1.21,3.92-1.71,5.85-.63,1.16.57,2.23,1.35,3.44,1.68s2.52.41,3.8.51c2.05.17.4.39-.3,1.83-.15.34-.23.8-.26,1.19-.06.61.08,1.2,0,1.8-.16,1.06-1.5,2.44-2.38,3.04-1.52.65-2.8,1.65-3.96,2.92-1.27,1.11-3.07.66-4.56,1.22-1.56.61-3.22.13-4.87-.11-.94-.16-1.07-1.19-1.53-2.38-.46-1.22-1.23-2.71-2.6-3.12-1.63-.52-3.87,1.03-5.39.21-1.41-1.03-1.85-3.14-2.06-4.75-.52-1.22-2.01-.96-3.13-1.34-1.51-.42-1.86-2.72-2.9-3.97-.67-1.11-1.9-1.95-2.04-3.26.05-.33-.13-.69.18-.83,1.58-.66,3.57-.76,5.19-1.63,2.32-1.63-.99-3.36-2.58-3.77-.75-.26-1.7-.11-2.42-.46-1.85-.9-2.36-3.39-3.23-5.15-.27-1.06.81-1.42.93-2.5.09-.5.08-1.07,0-1.58-.23-1.35-.55-2.7-.78-4.06s-.87-2.65-1.09-3.99c-.25-1.13.06-2.99,1.7-2.18,1.43.72,2.79,1.61,4.17,2.43,1.47.95,2.95,1.72,4.14,2.82.66.61,1.73.49,2.66.58,1,.23,2.22.08,3.16.22.08.02.06.07.13.09ZM84.24,139.43c.92-.48,1.12-.88-.06-1.31-1.77-.36-3.66.54-4.9,1.69-.44.52-2.08,1.54-.74,2.01.61.01.95-.12,1.43-.43,1.39-.74,2.28-2.39,4.11-2.02.09.02.09.09.16.06ZM77.92,144.67c-.91.99-1.3,1.97-1.29,3.01,0,.19.34.91.46.9.23-.01.2-.75.32-.94.58-.88.92-1.66.51-2.97Z"/><path d="M131.51,108.5c1.16-2.17,3.83-1.04,5.84-1.38,1.92-.55-.22-1.97-1.1-2.64-1.65-1.39-2.83-3.37-2.66-5.64-.09-1.34-.33-2.5.71-3.16,2.09-1.31.18-3.8.9-5.67.2-.7.61-1.32.7-2.04.4-1.04-1.24-6.34.73-5.23.86.69,1.79,1.6,2.87,1.92.7.25,1.26.44,1.77,1.06.37.43,1.08.47,1.58.74,1.25.66,2.55.77,3.68,1.77,1.35,1.26,1.53,2.92,2.28,4,.7.99,2.2,1.5,4.72.82,1.76-.34,2.21.5,2.79,1.77s1.04,2.69,1.71,3.69c1.01,1.92-1.23,3.85,0,5.71.84.9,2.11.65,3.38.05s2.04-1.27,2.83-.16c.47,1.27,1,2.46,1.87,3.57.54.8.67,1.49.07,2.15-.96,1.06-1.87,2.3-2.99,3.21-1.1.86-2.39,1.48-3.42,2.42s-1.62,2.27-2.54,3.33-2.5,1.59-3.25,2.78c-.21.31-.07.44-.22.47-.15.03.18.16.09-.13-.4-2.02-.68-4.36-1.05-6.38-.3-1.42-.63-2.81.01-4.11.35-.89.96-1.62,1.42-2.43.46-.71.22-1.46-.66-.91-.8.31-1.66,2.2-2.59,1.29-.79-1.39-1.89-3.21-1.27-4.89.64-1.52,1.8-2.78,2.57-4.21.34-.61,0-1.41-.24-1.62-.2-.22-.42,0-.83.51-.8,1.01-1.94,1.99-2.66,3.05-.32.47-.12.65-.39.51-.58-.39-.94-1-1.28-1.61-.62-1.35-1.68-2.76-1.22-4.24.14-.58.55-1.23.47-1.8-.32-1.02-1.15.77-1.55.65-.26-.05-.48-.25-.67-.51-.65-.99-.6-2.47-1.17-3.6s-1.88-1.65-2.75-2.48c-1.02-.46.47.94,1.53,2.94.89,1.67,1.86,3.45,1.9,3.83.46,1.22-1.58-.16-2.3-.06-.77.1-.4,1.28.11,1.59.63.42,1.28.89,1.95,1.27,1.53.8,2.05,2.38,2.72,3.89.22.7.94,1.48.78,2.2-.37.43-1.76-.61-3.23-1.43s-3.35-1.54-3.59-.75c-.09.42.78,1.24,1.25,1.47,1.23.75,2.71,1.49,4.15,2.13s3.28.92,4.02,2.28c.69,1.56,1.41,3.25,2.02,4.87.11.34-.49.74-.62,1.04-.21.43-.68.86-1.11.72-1.17-.44-2.27-1.11-3.45-1.54s-2.31-1-3.51-1.31c-.76-.08-4.5-1.96-4.22-.51.22.36.74.35,1.18.5,1.28.45,2.46,1.22,3.78,1.61s2.62.81,3.89,1.27,2.35,1.22,3.53,1.88c1.03,1.08,1.29,2.81,1.5,4.32.35,2.97-1.75,1.74-3.04.5-1.43-1.26-3.24-1.61-5.06-1.87s-3.68-.38-5.36-.9c-1.45-.78-2.63-1.95-3.82-3.12s-2.69-2.19-3.56-3.55c-.29-.65.14-1.64-.02-2.39-.13-.56-.35-.98-.28-1.44.18-.13.32.04.36-.03ZM162.17,107.36c.02-.16-.56-.24-.85-.21-1.05-.11-1.65,1-2.45,1.58-.28.21-.92.66-.84.95.06.09.57-.39.74-.39,1.06-.28,2.1-1.52,2.78-2.22.21-.12.62.33.62.29Z"/><path d="M88.63,114.37c.1-2.02,1.3-4,1.83-5.97.25-.71.07-1.71.71-2.1.38-.34,2.33-.8,3.96-1.56,1.88-.88,3.65-1.99,2.76-2.64-1.73-.09-3.18,1.78-4.75,2.41-2.8,1.61-1.52-1.02-1.07-2.41.57-1.34.64-3.08,1.77-3.8.92-.67,2.45-.78,3.09-1.72.09-.46-.67-.76-1.03-.68-1.47.42-1.73.8-1.12-.46.13-.37.9-2,1.68-3.54.93-1.84,1.9-3.39.92-3.03-.88.94-1.55,1.97-2.11,3.18s-1.24,2.32-2.05,3.32c-.45.31-.87-.3-1.26-.38-.86-.13-.61,1.03-.47,1.52.34.97.24,1.78-.09,2.76-.47.97-.47,3.01-1.36,3.55-.56-.04-.82-.71-1.19-1.2-.72-.98-1.43-2.24-2.32-2.97-1.1-.7-.34.58.04,1.09.92,1.79,1.94,3.57,2.54,5.51.19,1.21.05,2.38-.31,3.49-.27.7-.56.49-1,.05-.51-.45-1.9-1.82-2.6-1.08-.23.49.23,1.72.6,2.19.7.85,1.86,1.66,1.79,2.8-.16,1.5-.45,3.01-.69,4.51s-.61,2.99-.87,4.47c-.19.72-.98.68-1.33.14-.79-1.36-1.7-2.5-2.75-3.64s-2.02-2.32-3.2-3.34-2.45-1.94-3.62-2.96c-.7-.73-1.73-1.52-2.13-2.44-.4-.94.69-2.31,1.09-3.31.16-.39.4-.71.48-1.13.16-.71.36-1.97,1.39-1.84,1.55.35,5.36,3.04,4.95-.41-.17-1.29-.6-2.7-.25-4.11.18-.76.12-1.56.33-2.31.29-1.53,1.21-3.44,3.11-3.32,3.29.81,4.05-.59,4.75-1.94.78-1.5,1.41-3.53,4.03-4.04.65-.11,1.34,0,1.92-.32,1.14-.69,1.9-1.8,3.16-2.31,1.15-.42,2.01-1.97,3.22-2.05.26.06.56.37.62.76.18,1.66-.74,3.62-.54,5.3.17,1.2.87,2.25.73,3.56-.04.79-.07,1.67.1,2.44.19,1,1.77,1.15,2.26,1.97.95,1.72-.05,3.47-.89,4.96s-1.94,2.88-3.12,3.95c-.61.7-.67,1.76.33,1.99,1.84.49,4.5-.92,6.17.26.26.28,0,.87.02,1.26-.03,1.44.4,3.06-.55,4.27-.47.62-.63,1.41-.96,2.11-.56,1.15-2.16,1.48-3.02,2.42-.92,1.04-1.93,1.43-3.22,1.63s-2.6.45-3.83.64c-1.68.14-3.26.49-4.52,1.53-.69.52-1.45,1.08-2.19,1.47-1.28.51-1.05-.98-1.02-2.02.24-1.6-.09-3.61,1.68-4.4,1.73-.64,3.28-1.8,5.06-2.36s3.53-1.22,5.26-1.81c.46-.18,1.49-.02,1.72-.41.3-.79-1.67-.36-3.87.28-1.24.36-2.59.87-3.84,1.3-1.87.64-3.51,1.13-3.91,1.2-.39.11-.58,0-.83-.3-.02-.12-.18.03-.18-.02ZM78.23,106.31c-.1.43-.53,1.19-.41,1.48.55.59,1.78.64,2.39,1.18.24.17.27.75.43.67.1-.08.71-.4.75-.57-.7-.95-2.25-1.54-3.07-2.44-.12-.11-.08-.35-.09-.32Z"/><path d="M135.63,137.41c-.67-.57-.64-1.97-1.15-2.7-1.51-1.93-.59,2.53-.56,3.15.26,1.93-1.09,3.27-2.06,4.76-.34.5-.73.96-.81.02-.12-1.33-.42-2.67-1.41-3.76-1.82-2.04.62,4.7.38,5.45.06,1.07-1.25,1.68-1.91,2.49-1.19,1.49-1.47,3.56-2.32,5.24s-1.92,3.26-2.75,4.94c-1.34,1.91.15-1.89.36-2.32.52-1.2.88-2.47,1.03-3.83s.4-2.73-.06-3.99c-.31-1.15-1.95-2.68-.84-3.75.47-.51,1.2-.74,1.14-1.24-.08-.57.06-1.29.1-2.18.01-.39-.13-.82-.09-1.21.05-2.93,1.68-3.51,4.22-3.2.77-.05,1.28-.52,1.31-1.29.05-.84-.49-2-.07-2.7.26-.5.96-.8,1.33-1.23.48-.53,1.32-1.35,2.25-.97.92.27,2.3,1.1,3.28.53,1.75-1.26,3.17-.83,5.24-1.59,1.08-.37,2.2,0,2.37,1.24.31,1.13-.33,2.26-.03,3.38.46,1.37,0,3.42-1.58,3.76-.42.13-1-.15-1.37.11-1,.63-.96,1.94-.15,2.81.35.44.09,1.02.03,1.53-.05.48-.04,1-.04,1.49.04.85.74,1.9.39,2.7-.64,1.6-2.85,1.7-4.34,1.09-2.45-.78-4.73.08-6.87,1.2-1.01.45-.97-.57-.54-1.05.85-.99,2.07-1.77,3.22-2.32s2.5-.9,3.74-1.14c2.61-.54,1.56-1.36-.5-.69-.72.17-1.35.75-2.05.92-.66.17-1.51-.34-1.46-.69.8-1.62,2.54-2.59,3.89-3.81s3.04-2.42,4.12-3.78c.21-2.35-4.69,3.22-5.43,2.95-.06-.02,0-.3-.03-.33Z"/><path d="M94.25,135.61c-1.5-1.14-1.31-3.22-1.29-4.84.07-.72.75-1.38,1.2-1.96,1.01-1.05,2.5-.04,3.77.13.95.09,1.86-.7,2.55-.14.37.27.69.54,1.15.61,1.12.26,2.32-.8,3.35-.23,1.04.73,2.63,1.95,2.6,3.31,0,.82.02,1.59.75,2.13.88.68,2.72-.08,3.65.7,1.24,1,1.27,3.02,1.62,4.46.19,1.06-1.06,2.37-.43,3.06.24.31.55.61.74.95.09.24-.21.36-.24.62-.67,1.62-.22,3.13-.35,4.3-.17,1.48-.18,2.66.31,4.1.39,1.15.33,2.62,1.01,4.17.21.84.73.27.38-.42-.78-1.75-2.31-3.15-3.2-4.85s-1.41-3.62-2.54-5.19c-.38-.56-.83-1.08-1.02-1.72-.65-2.08,1.09-4.49.79-6.51-.2-.2-.51.31-.69.5-1.15,1.26-1.2,2.96-1.72,4.46-.08.1-.21.29-.33.23-.45-.29-.65-1.34-1-1.8-1.7-1.88-1.38-4.32-1.4-6.64-.03-.69-.75-1.47-1.19-.5-.68,1.61.59,4.18-1.74,1.7-.95-.83-2.03-1.74-3.19-2.16-.14-.02,0,.29-.03.39-.04.58.49.95.86,1.41.95.99,1.67,2.21,2.65,3.19s2.26,1.68,3.21,2.66c.18.22.1.65-.01.88-.62.41-2.64-.79-3.61-.77-1.71-.07-.58.72.31.91,1.19.31,2.34.97,3.43,1.54s2.38,1.08,3.25,1.97c.17.2.3,1.23.09,1.38-.24.07-1.05-.29-1.34-.45-1.2-.77-2.33-1.03-3.63-1.01s-2.61-.02-3.92.16c-1.47.04-2.3-1.48-2.06-2.73.09-.59.81-1.25.66-1.85-.07-.38-.6-.71-.55-1.1.09-.79.58-1.46.31-2.38-.28-1.12-.91-2.23-2.02-2.34-.38-.06-.82.13-1.17-.04-.08-.14.06-.23,0-.28Z"/><path d="M90.68,62.32c.11-1.11-.11-2.55-.28-3.72-.22-.97-.68-1.48.04-2.01.68-.5,1.41-.65,1.53.25.36,2.32.19,4.63.43,7.02.12.96-.56,1.51-1.44,1.25-1.25-.69-2.19-1.82-3.24-2.78-.38-.39-.71-.67-.81-.48-.23,1.71,1.73,4.42.43,5.91-.58.64-1.42.07-1.99-.52-1.57-1.67-3.65-2.86-5.1-4.59-.55-.8.92-2.22,1.71-1.65.19.11.39.37.58.55.89.89.93,1.95,1.8,2.79.5.5.76.65.87.4.28-1.64-1.81-5.67.5-6.41,1.15-.27,1.64,1.72,2.36,2.42.57.5,1.81,1.55,2.48,1.5.06,0,.1.09.11.05Z"/><path d="M113.96,50.62c1.75-.13,4.1-.4,5.79.42,1.45.79,2.21,2.58,2,4.18-.23,2.66-2.96,3.68-5.32,3.62-.77-.02-1.53-.13-2.29-.38-.14-.12-.43.01-.42-.26.02-1.25.18-2.5.17-3.75s-.03-2.5.05-3.75c0-.06-.03-.07.02-.07ZM115.92,57.08c.59.1,1.52.16,2.09-.03,1.49-.55,1.8-1.98,1.4-3.18s-1.45-2.12-3.03-1.73c-.17.04-.82-.06-.9.07-.15,1.48.52,3.29.47,4.8,0,.06-.09.07-.04.08Z"/><path d="M131.55,191.38c-.35-1.2-.76-2.47-1.03-3.75s-.22-2.6-.49-3.83c0-.56.67-.36,1.19-.46,1.37-.2,2.72-.99,4.09-.93,2.45.07,4,3.44,3.4,5.57-.4,1.36-1.83,1.96-3.09,2.41s-2.62.64-3.75.94c-.18.05-.32.09-.34.04ZM133.39,189.09c1.24-.18,2.43-.23,2.71-1.79.49-2.16-1.29-3.62-3.33-2.66-.08.04-.4-.03-.48.01-.09.18.57.5.59.74.27,1.24.54,2.58.81,3.8.03.11-.34-.1-.3-.11Z"/><path d="M154.01,64.6c-2.12,1.71,1.71,1.82,2.78,2.94.57.63-.63,2.02-1.37,1.51-1.5-.83-2.73-2.1-4.23-2.94-.22-.15-.78.05-.84-.21.12-1.25.95-2.56,1.47-3.74.76-1.07,1.57-3.02,2.59-3.75,1,0,2.02,1.1,2.95,1.5.86.58,1.94,1.03,2.64,1.79.32.69-.64,1.95-1.37,1.5-1.33-.52-3.57-3.25-3.95-.95.16,1.3,3.73,1.39,2.96,2.95-.55.93-1.26.28-2.08-.14-.59-.29-1.22-.83-1.66-.79-.11.17.14.3.09.34Z"/><path d="M159.49,177.41c.95.93,3.73,1.35,1.32,2.76-.82.48-2.29-1.09-3.08-.9-.38.05-.42.23-.63.56-.3,1.12,1.35,1.63-.52,2.49-.29.2-.78.49-1,.34-.74-.97-1.52-2.01-2.2-3.07s-1.38-2.13-2.06-3.15c-.26-.71,1.26-1.39,1.74-1.81,1.43-.87,3-1.7,4.7-.69,1.37.73,2.2,1.86,1.97,3.49,0,.1-.31-.07-.26-.01ZM155.6,178.52c.55-.74,1.31-1.52,1.57-2.39-.04-.26-.08-.53-.32-.67-.89-.07-1.52.36-2.39.72.35.86.73,1.61,1.2,2.44.03.06-.09-.07-.07-.1Z"/><path d="M102.41,181.6c.89.04,2.04.48,2.95.65,1.12.27,2.5.82,2.99,1.93.65,1.58-.24,2.77-1.69,3.61-.15.12-.45.57-.47.73-.12.66,1.8,2.91.43,2.83-2.13.19-1.27-2.51-2.95-2.8-.93-.31-1.21.17-1.4.83-.14.59-.24.6-.73.48-.24-.05-.82.33-.99.21-.13-.09.21-.59.22-.77.28-1.19.5-2.43.76-3.65s.28-2.5.63-3.68c.05-.22.2-.37.26-.37ZM104.27,183.69c-.15.93-.63,1.99-.65,2.91.07.11.09-.11.27-.1.74-.05,1.71.52,2.4.31.27-.1.64-1.46.62-1.84-.54-.71-2.36-.65-3.12-1.14-.12-.1.49-.18.48-.14Z"/><path d="M93.34,187.41c-1.66-.05-2.49-1.56-3.18-2.64-.78-1.21-.84-2.34-.26-3.6.52-1.14,1.17-2.35,2.91-2.51,1.82-.1,3.44.56,4.23,1.65.9,1.25,1.11,3.29.48,4.63-.56,1.19-2.01,2.23-3.92,2.3-.25.07-.18.19-.26.18ZM93.34,180.91c-2.51.11-3.31,3.95-.78,4.67,1.62.37,3.27-1.08,3.49-2.32s-.85-2.59-2.6-2.72c-.25.05-.06.36-.12.36Z"/><path d="M114.49,189.89c-.39.64.39,1.66-.78,1.57-.41,0-1.26.55-1.36.04.02-2.3.53-4.64.65-6.99.05-.38.15-.18.54-.18,1.49.12,3-.13,4.41.28,1.92.55,2.21,3,.82,4.37-.18.19-.31.5-.35.76-.09,1.09,2.02,2.9-.36,2.8-1.04.04-1.24-1.99-1.99-2.39-.34-.24-.92-.33-1.23-.14-.18.02-.31-.18-.34-.12ZM114.79,188.79c.68-.17,1.68-.16,2.35-.38.29-.11.21-.66.27-.91.55-1.89-1.2-2.1-2.53-1.81-.21.8-.49,1.91-.59,2.75,0,.19.47.36.51.35Z"/><path d="M145.63,187.46c-1.89-.14-3.22-1.35-3.74-2.57-.58-1.36.15-2.88,1.09-4.1.82-1.06,1.87-2.08,3.7-1.94,1.74.24,3.12,1.12,3.59,2.28.52,1.28-.24,2.81-1.06,3.99-.74,1.06-1.82,1.53-3.48,1.55-.19.04-.02.79-.1.78ZM147.95,183.02c-.04-2.56-3.1-3.31-3.97-.77-.44,1.69.31,3.15,1.5,3.44s2.62-.68,2.72-2.54c-.02-.18-.25-.07-.25-.13Z"/><path d="M150.13,56.49c.06.39-.43,1.12-.81,1.15-.29.05-.73.11-1.09,0-.84-.18-1.57-.76-2.42-.44-.27.29-1.14.98-.84,1.36.18.24.72.41,1.07.57.72.44,2.12.1,1.7,1.29-.1.23.21.92-.07.95-.9-.04-2.03-1.09-2.95-1.26-.44-.02-.55.42-.71.87-.3.54-.62,1.31-1.21,1.47-.39.03-.81-.18-1.12-.45-.1-.11-.16.07-.14-.09.33-1.17.91-2.41,1.32-3.59.44-1.14.37-2.52.83-3.68.16-.35.85-.82,1.22-.72,1.66.68,3.35,1.65,4.98,2.53.11.05.22-.03.24.03Z"/><path d="M87.63,177.36c-.57.54-1.49-.03-1.91-.78-1.52-2.14-3.76-1.39-4.47-.03s-.1,3.43,2.56,3.69c.12.06.41.03.54.09.32.32.33,1.14-.13,1.29-.7.23-1.63.13-2.35-.14-1.61-.52-2.19-2.05-2.31-3.56s.14-3.21,1.64-3.98c1.18-.66,2.66-.39,3.86.16s2.38,1.5,2.55,2.87c.05.21.06.35.02.39Z"/><path d="M104.89,60.38c-.4-1.11-.59-2.55-.88-3.75-.19-1.39-.64-2.78-.6-4.17.1-.21.27.03.57-.04.34-.07.52-.43.85-.31.61,1.1.59,3.27.98,4.6.31,1.13.18,1.64,1.75,1.18.67-.09,1.55-.16,2.19-.14.25.04.51.42.56.74.05.25-.23.49-.37.7-.22.3-.64.55-1.11.69-1.32.22-2.67.51-4,.61-.08,0,.08-.05.06-.1Z"/><path d="M126.64,50.52c.2-.09.77-.08,1.12-.05.29.04.29.56.42.75.2.31.5.77.49,1.26-.07,1.6-.43,3.2-.25,4.79.17.24.32.19.69.27.67.13,1.51.26,2.11.48.23.13.03.36-.03.67-.06.4.14,1-.35,1.01-1.58-.16-3.19-.6-4.78-.82-.53-.18.09-.5.15-1.03.33-2.33.14-4.75.59-7.06.02-.13-.2-.24-.15-.27Z"/><path d="M138.76,52.8c-.26,1.23-.15,2.6-.46,3.87s-.53,2.56-.82,3.79c-.14.49-1.07.02-1.34,0-1.34-.02-1.14-.62-.88-1.66.6-2.13.96-4.27,1.74-6.36.25-.15.7-.14,1.04-.11.28.07.82.19.97.28.03.05-.23.13-.24.18Z"/><path d="M95.95,54.51c.18-.13.45-.74.77-.86.28-.07.91.06,1.12.17.63,1.03,1.19,2.46,1.66,3.62.38,1.38,1.03,2.88,1.25,4.32-.14.24-.9.68-1.22.81-.28.07-.63-.2-.84-.31-.56-1.23-1.46-2.37-1.89-3.7s-.41-2.78-.85-4.07c-.02-.06-.05.05,0,.02Z"/><path d="M126.4,192.12c-.3.03-1.46-.27-1.7-.45-.28-.46-.39-1.18-.5-1.75-.06-1.89-.85-3.88-.72-5.77.16-.17,1.06.25,1.36.23.3.02.78-.41.96-.25.18.16-.42.68-.38.98.15,2.2.53,4.52.62,6.7,0,.18.4.3.35.32Z"/><path d="M126.1,153.85c.43-.55.6-2.63,1.45-3.87.97-1.41,2.38-2.11,3.19-.24-1.44,1.38-3.19,2.72-4.76,4.02-.13.17.12.09.13.08Z"/><path d="M112.28,152.84c-1.1-.78-2.61-1.18-3.71-1.96-.39-.35-.65-.59-.77-1.15.12-.66.76-1.51,1.37-1.17,1.25,1.21,1.58,3.56,2.6,4.97.17.14.52-.68.51-.69Z"/><path d="M51.95,51.65c-1.41-.02-2.72-.61-3.8-1.57s-1.78-2.16-1.93-3.59c-.17-1.39.34-2.55,1.04-3.74s1.54-2.14,2.75-2.77,2.4-.64,3.78-.36c1.81.42,3.51.63,4.3,1.77.9,1.31.39,3.07.12,4.63s-.52,3.12-1.73,4.17c-1.1.96-2.6,1.17-4.35,1.22-.11,0-.1.23-.18.23ZM56.1,45.56c-.07-1.95-1.6-3.41-3.17-3.74s-3.52.47-4.08,2.56c-.51,2.42,1.18,4.45,2.98,4.83s4.16-.83,4.39-3.47c.01-.1-.12-.11-.12-.18Z"/><path d="M69.2,39.87c-1.11-1.41-2.36-2.74-3.25-4.36s-1.97-3.08-2.93-4.59c-.25-.43.02-.95.47-1.31,1.23-.66,2.59-1.68,4.06-2.39s3.01-1.41,4.49-1.02c1.75.54,3.27,2.45,3.19,4.26.03.69-.74,1.55-.56,2.22.55,1,2.14,1.19,3.06,1.85,1.4.76-.66,1.39-1.28,1.75-1.38.77-3.13-1.09-4.36-.99-.74.1-1.85.24-1.69,1.13.19.77,1.28,1.72.97,2.54-.38.52-1.58.98-2.24,1.02-.13-.03.11-.06.07-.12ZM69.05,33.99c1.12-.79,2.88-1.5,2.99-3.13-.57-3.13-2.51-1.73-4.44-.53-.14.1-.88-.07-.91.07.44,1.12,1.39,2.31,1.94,3.4.09.17.37.21.41.19Z"/><path d="M183.6,45.64c-.79.16-1.43,1.78-2.48,1.19-.66-.51-2.5-1.13-1.86-2.09,1.24-1.4,2.91-2.53,4.12-4.02s2.04-3.39,3.42-4.67c.39-.12,1.12.32,1.41.59,1.53,1.47,3,2.95,4.38,4.51,1.13,1.17,1.27,2.9.66,4.26s-2,2.58-3.41,2.84c-.54.15-1.25-.14-1.63.33-.45.73.05,2.01-.15,2.9-.08.59-.69,1.05-.99,1.04-.29.02-.61-.67-1.01-1.02-.63-.52-1.25-.92-1.14-1.65.11-.94.13-1.99,0-2.91-.15-.74-.47-1.74-1.28-1.9-.16.02.03.58-.04.59ZM185.47,42.99c1.09.75,2.15,3.11,3.67,2.72.82-.28,1.11-1.62,1-2.48-.19-1.14-.91-2.08-1.69-2.85-.15-.1-.21.13-.36.16-.91.8-1.82,1.84-2.66,2.73-.09.09,0-.31.03-.28Z"/><path d="M195.29,62.05c-.34-.05-.39-1.05-.72-1.49-1.57-1.6.44-2.51,1.49-3.45,1.05-.79,2.29-1.34,3.34-2.14s2.23-1.4,3.28-2.19c.42-.31.58-.5,1.02-.16,2.13,1.97.99,2.22-.78,3.61-.57.45-1.56,1.08-1.44,1.36.03.11.39-.14.6-.08,1.33.24,2.77.97,4.15,1.01,1.65.02,3.43.63,3.75,2.21-.04.3-.51.24-1.08.19-1.05-.07-2.02-.49-3.05-.6-1.04-.12-2.12.31-2.57,1.26-.93,2.15-1.43,4.53-2.44,6.73-.43.54-.76-.02-1.16-.52-.7-.86-.73-1.67-.36-2.83.29-1.11.25-2.39.56-3.49.04-.26.26-.63.11-.85-.71-.92-2.44-.2-3.26.41-.45.31-.7.83-1.05.82-.17.15-.31.19-.37.18Z"/><path d="M88.01,23.04c1.6.11,3.36-.52,5-.56.76.05,1.03.74.75,1.28-.91,1-2.87.96-4.12,1.54-.51.18-.64.65-.69,1.05-.06.53.13,1.3.57,1.51.77.29,1.75.24,2.64.04.86-.26,1.47-1.42,2.33-1.68.59-.17,1.59.09,1.86.49.44.65-.03,1.53-.92,1.81-1.26.4-2.3,1.57-3.59,1.98s-2.62.72-3.91,1.07c-1.5.13-1.88-2.07-2.39-3.08-.4-1.27-.38-2.7-.79-3.97s-.56-2.61-.94-3.88c-.13-.56-.1-.68.4-.93,1.15-.47,2.49-.74,3.69-1.15,1.24-.38,2.42-1.12,3.66-1.47.5-.12,1.29-.19,1.55.3.73,1.32-.39,2.37-1.62,2.68-1.05.34-2.15.52-3.2.87-.65.22-.68.29-.6.84.08.44-.24,1.39.13,1.62.09.02.13-.37.2-.36Z"/><path d="M171.93,40.53c-.52.01-1.67-.87-2.14-1.24-.72-.61-.45-1.74-.8-2.46-.17-.37-.29-.74-.72-.95-1.46-.53-3.17-2.71-4.75-1.56-.54.4-.69.52-1.29.27-1.33-.57-2.59-.59-.91-1.7,1.43-1.1,2.89-2.17,4.31-3.3s3.06-1.96,4.5-3.05c.85-.63,1.64-.71,2.49-.29.76.32.69,1.59.58,2.37-.25,1.9-.5,3.85-.67,5.8s-.42,3.85-.8,5.75c-.03.18.24.37.19.38ZM166.79,32.14c.97.47,1.93,1.46,2.92,1.82.33-1.35.14-2.89.36-4.3,0-.18.4-.46.32-.48-1.22.88-2.81,1.84-4,2.81-.1.07.36.14.39.15Z"/><path d="M146.62,16.67c.31-.12.79.16,1.31.29,2.06.7,4.79.54,6.47,2.02,1.28,1.16,1.44,3.52.81,5.08s-2.41,2.87-4.08,2.8c-.79.02-1.51-.5-2.27-.68-1.97-.57-1.64-.23-2.2,1.82-.29,1.49-1.65.43-2.62.16-.51-.15-1.26-.05-1.2-.57.24-1.06,1.34-2.02,1.64-3.11.43-1.25.06-2.79.42-4.11s.94-2.61,1.48-3.8c.05-.08.19.14.25.11ZM147.55,23.62c1.22.21,2.9,1.24,4.04.19.76-.71.52-1.93-.26-2.71-.64-.65-1.39-.65-2.23-.93-.18-.03-.15-.52-.26-.45-.5,1.12-1.06,2.47-1.46,3.65-.03.1.14.24.18.25Z"/><path d="M105.86,22.7c1.54-.11,3.68,2.04,5.19,1.1,1.95-1.39-1.51-2.89-2.73-3.02-2.47-.19-4.37-2.32-3.08-4.68.81-1.25,2.28-1.48,3.8-1.7s2.85-.2,4.17.35c.9.43.64,2.19-.14,2.45-.94.18-2.37-.95-3.41-.81-1.44-.04-1.82,1.08-.45,1.68,1.44.63,3.25.65,4.62,1.67,1.17.99,1,2.36.6,3.53s-1.16,2.12-2.54,2.45c-.84.42-2.76.47-4.36.11-1.8-.41-3.51-1.51-2.15-3.13.09-.12.42.02.48.01Z"/><path d="M30.69,60.48c.6-1.18,1.45-2.37,2.31-3.48s2.34-1.74,3.1-2.83c.64-.89,1.86-.04,1.84.69-.49,1.41-2.07,2.78-2.83,4.11-.29.49-.08.72.38,1.08.57.42,1.23,1.43,1.73,1.21,1.18-.83,1.72-2.91,2.76-3.9.62-.59,1.5.39,1.75.93.13.33.25.66-.04,1.05-.64,1.09-1.71,2.25-1.89,3.47.14.73.86,1.5,1.49,2.06,1.58.94,1.29,1.79.39,2.87-.35.38-.9-.08-1.33-.33-1.51-1.04-2.89-2.35-4.4-3.43-1.5-1.25-3.94-1.67-5.16-3.12-.13-.14-.14-.33-.11-.39Z"/><path d="M130.43,26.29c-.18.12-.74-.12-1.07-.15-.79-.11-2.02,0-2.09-.9.07-1.37.72-2.76.85-4.17s-.34-2.85-.27-4.23c-.04-.59-.29-.39-.89-.44-1-.16-3.04-.28-2.74-1.77-.15-1.81,2.42-.97,3.52-1.01,2.12.19,4.19.59,6.33.77.26.04.26.24.42.45.27.31.08.63,0,1.14-.41,1.34-2.12.1-2.83,1-.36,1.44-.5,2.84-.6,4.37s-.19,3.07-.56,4.51c-.02.24-.05.38-.1.42Z"/><path d="M82.32,208.43c1.88.02,3.48.17,4.57,1.13,1.26,1.11,1.42,2.82,1.54,4.39s.02,3.16-1.13,4.36c-.98,1.02-2.38,1.37-4.32,1.47-1.87-.02-3.32-.27-4.41-1.22-1.26-1.1-2.4-2.56-2.55-4.13s.36-3.59,1.48-4.8c.95-1.03,2.72-1.57,4.66-1.7.21.03.07.49.16.49ZM82.7,210.25c-1.85,0-2.89,1.8-3.17,3.36s.06,3.66,1.83,4.3c2.34.69,4.22-1.33,4.63-3.17s-.42-4.28-3.04-4.51c-.2-.05-.16.02-.24.02Z"/><path d="M166.05,203.42c1.12-1.2,2.82-2.02,4.22-2.98,1.38-.92,3.11-.9,4.41-.62,1.4.3,2.94,1.13,3.41,2.76.44.94-1.1,2.87-.51,3.79.46.77,4.87.95,2.85,2.03-2.85,2.48-3.83-1.46-6.26.53-1.3.94,1.11,2.21.7,3.34-.21.43-1.04.92-1.56,1.22-.35.15-.46-.34-.75-.64-1.04-1.35-2.57-2.5-3.55-3.92-.93-1.68-1.84-3.57-2.46-5.36-.07-.16-.54-.1-.5-.15ZM171.95,207.1c.78-.72,2.01-1.08,2.54-2.06.52-.87.31-1.98-.51-2.45-1.15-.62-2.04.53-2.94,1.23-.25.18-1.24.11-1.47.32.49,1.07,1.54,2.28,2.15,3.32.05.09.21-.33.24-.35Z"/><path d="M92.1,211.75c1.51-.02,3.05.56,4.55.89,2.04.49,4.36,1.42,4.33,3.73.05,1.66-.73,3.21-2.26,4.05-.4.24-.72.59-.79.94-.34.86,2.09,4.55-.07,3.87-1.77-.16-1.86-1.37-2.14-2.43-.3-1.17-.74-2.11-2.51-2.11-1.37.12-.87,1.84-1.94,2.3-.44.14-1.02.03-1.59-.15-.34-.15-.77-.3-.75-.72.29-1.67,1.19-3.34,1.58-5.01.6-1.82.36-4.2,1.24-5.86.11-.16.27.5.33.5ZM93.18,218.45c1.29.2,3.36.95,4.48-.18,1.67-2.5-.79-3.36-2.89-3.78-.18-.03-.55-.32-.67-.24-.46,1.08-.59,2.55-.94,3.69-.07.24-.01.49.03.5Z"/><path d="M193.8,197.55c-1.31-.83-3.06-1.74-4.44-3.11s-2.44-2.94-3.66-3.99c-.42-.41-.67-1.01-.28-1.53.91-.97,1.66-2.18,2.61-3.19s2.08-1.88,3.1-2.73c.87-.36,1.99.86,1.35,1.69-.71.9-1.66,1.76-2.46,2.64-.64.65-1.43,1.57-1.06,2.19.35.63,1.65,1.47,2.34.87,1.01-.87,1.69-2.47,2.7-3.35.74-.7,2.3.48,2.17,1.26-.49,1.23-2.38,2.2-3.2,3.3-.26.33.04.56.28.94,1.55,2.53,2.97-.58,4.3-1.63.92-1.1,1.41-1.57,2.27-.45.73,1.07-.88,1.57-1.47,2.36-1.59,1.45-2.91,3.4-4.7,4.5-.06.04.2.27.14.24Z"/><path d="M63.13,204.65c-1.23-.31-2.66-1.49-3.82-2.18-.55-.39-.63-.41-1.05,0-.45.44-1.28.92-.82,1.5,1.14,1.13,2.46,2.36,3.7,3.41.58.47,1.08.89.52,1.5-.38.46-1.03.25-1.52-.1-1.01-.73-2.4-.96-3.41-1.72s-1.65-1.98-2.66-2.73c-1.55-1.11.44-2.4,1.07-3.5.81-1.05,1.79-1.96,2.58-3.03s1.41-2.23,2.25-3.25c.99-.91,1.74.7,2.61,1.21,1.49,1.13,3.49,1.66,4.96,2.81.36.32.15.96-.01,1.41-.32.87-1.04,1.44-1.87.74-1.25-.81-2.63-1.95-3.92-2.5-.68-.2-1.49.54-1.54,1.13.11,1.14,2.03,2.05,2.83,2.85.63.48,1.36.71.95,1.52-.19.35-.29,1.26-.68,1.35-.06.01-.13-.39-.19-.4Z"/><path d="M162.08,205.44c.33-.53,2.52-1.24,3.09-.48.68,1.04,1.49,2.14,2.05,3.26.88,2.08,2.05,4.79.88,7.02-.6,1.28-2.18,1.8-3.57,2.33s-2.98,1.27-4.26.78c-2.14-.83-2.6-3.66-3.58-5.53-.46-1.13-.94-2.21-1.18-3.41-.05-.82,1.61-1.88,2.22-1.49.6.45.23,1.8.59,2.47.92,1.74,1.73,3.84,3.46,4.97,1.51.91,3.42-.31,3.4-2-.07-1.35-.54-2.61-1.17-3.83s-1.6-2.35-1.79-3.64c-.09-.25-.16-.39-.13-.45Z"/><path d="M119.09,227.21c.49-1.81,1.19-3.66,1.92-5.47s1.79-3.47,2.44-5.24c.39-1.04,1.47-.96,2.4-1.01.6,0,.69.56.97,1.06.84,1.6,2.3,2.88,3.11,4.52s.97,3.53,1.79,5.18c.52,1.14-1.11.87-1.74.92-.57-.03-.68-.79-.96-1.35-.83-1.73-3.31-.14-4.8-.36-.75.05-1.32-.08-1.67.58-.26.5-.64.71-1.22.88-.57.14-1.53.6-1.99.35-.12-.06-.26,0-.25-.06ZM127.05,222.76c-.64-1.34-1.23-3-1.94-4.28-.12.21-.26.33-.33.56-.36,1.28-.88,2.7-1.11,3.96,1.04.08,2.43.2,3.49.17.06,0-.09-.38-.11-.41Z"/><path d="M37.33,186.75c-.35-.13-.64-.83-.96-1.29-.81-1.19.57-2.18-.22-3.42-.78-1.15-1.53-2.84-3.05-3.04-.68,0-1.34-.09-1.9-.59-.45-.44-1.9-2.05-.74-2.32,1.84-.39,3.74-.35,5.54-.71s3.64-.72,5.46-1.07c.82-.13,1.45.08,1.94.8.86,1.09.47,2.3-.25,3.3-1.02,1.4-2.31,2.69-3.24,4.21s-1.42,3.35-2.51,4.71c-.18.16-.03-.56-.08-.57ZM35.7,178.29c.64.85,1.76,2.24,2.47,3.01.88-1.02,1.55-2.79,2.37-3.91.09-.15.32-.26.26-.31-1.47.22-3.26.44-4.74.74-.26.08-.39.44-.37.47Z"/><path d="M73.37,209.66c.86,0,1.94.97,1.35,1.93-.71,1.11-.94,3.23-2.39,3.52-1.43.17-2.84-.69-4.07-1.43s-2.67-1.54-3.28-2.79-.22-2.81.24-4.23c.53-1.85,1.45-3.28,2.98-3.87s3.31-.11,4.95.46,3.27,1.22,4.08,2.77c.63.95-.26,1.58-1.3,1.71-1.09.07-1.23-1.42-2.01-1.96-1.61-1.49-4.03-1.04-5.27.15s-1.23,3.13.29,4.75c.79.81,2.43,2.14,3.23,1.35.57-.47.72-1.41,1.39-1.73.13-.1-.23-.63-.17-.63Z"/><path d="M147.32,222.04c-.32-.75.47-2.02,1.38-1.96,1.32.03,2.97.35,4.19-.31.97-.46.75-2.02-.38-2.15-.71-.13-1.49.45-2.25.43-2.54.3-4.57-1.68-3.79-4.39.52-1.28,1.35-1.97,2.6-2.47,1.18-.47,2.45-.7,3.77-.62,1.39-.01,1.64,1.22.68,1.95-1.11.52-2.85.32-3.69,1.32-.16.21-.55.27-.4.52,1.39,1.44,4.1.43,5.68,1.75,1.91,1.34,1.84,3.81-.2,5.01-.97.65-2.13,1.47-3.41,1.63s-2.56-.47-3.63-1.05c-.26-.07-.55.38-.58.32Z"/><path d="M118.86,217.77c-.12.51-1.26.57-1.86.55-1.1-.12-2.48-.58-3.64-.55-1.56.06-2.44,1.66-2.53,3.19-.17,2.22,1.24,4.01,3.32,3.55.74-.07,1.89-1.01,2.63-.81.58.15,1.06,1.17.74,1.77-1.09,1.18-2.59,1.52-4.25,1.44s-3.03-.69-4.1-1.83c-1.24-1.41-2.03-2.66-1.99-4.03.05-1.6.95-2.93,2.13-3.99s2.55-2.18,4.17-2.21c1.44-.03,3.26.45,4.66,1.55.34.26.18,1.02.21,1.29.17.16.53.02.52.08Z"/><path d="M184.47,190.49c.77,1.62,1.75,3.21,2.29,4.98s1.27,3.47,1.88,5.14c.37.94-.39,1.83-1.25,2.46-.68.57-1.2.8-1.99.42-1.55-.8-3.14-1.55-4.69-2.41s-3.33-1.28-4.86-2.12c-.24-.15-.29-.7-.29-.99.17-.77,1.15-1.1,1.83-1.19,1.27.29,2.77.22,4,1,1.16.74,1.88,2.35,3.09,2.96.16.07.62-.24.76-.35.06-.05.51-.18.49-.32-.37-1.22-1.29-2.29-1.75-3.51s-1.21-2.32-1.63-3.53c-.35-1.02,1.14-1.46,1.92-2.02.24-.19.09-.68.26-.65.02.11-.06.09-.04.13Z"/><path d="M198.58,173.71c1.1,1.54,1.66,3.45,2.51,5.26s2.26,3.37,4.08,4.37c.99.65.35,1.55-.21,2.28-.38.51-.77.14-1.25-.24-1.37-1.17-3.23-1.28-4.91-1.59s-3.39-.69-5.04-1c-1.06-.18-2.87-.25-1.63-1.63,1.26-2.02,4.26-.82,6.18-.8.51.08,1.03.56,1.07.29-.29-1.46-1.75-3.02-2.17-4.53-.29-.89.58-1.22,1.18-1.87.25-.23-.1-.41.3-.55.16.06-.13-.03-.1,0Z"/><path d="M53.93,187.72c.33.06.62.94,1,1.26.32.31.83.49.83.82-.79,1.2-1.47,2.6-2.54,3.66s-2.12,2.02-3.05,3.14c-.54.65.24.55.74,1.07.35.33.23,1.17.58,1.5,1.6,1.41,1.85,1.12.21,2.56-.78.34-1.15-.81-1.76-1.21-1.34-1.27-3.21-1.98-4.51-3.32-.22-.33.33-.89.58-1.16,1.31-1.31,2.56-2.71,3.84-4.08s2.81-2.49,4.18-3.73c.11-.11-.18-.52-.11-.51Z"/><path d="M47.72,181.37c.31.08.52.56.88.92.29.34.67.37.64.71-.9,1.13-1.61,2.46-2.77,3.42s-2.15,2.01-3.18,3.03c-.59.58-.16.71.29,1.26.31.36.5.83.82,1.19,1.29,1.43,1.83,1.55.16,2.86-.85.57-1.76-.58-2.36-1.06-1.21-1.4-2-3.14-3.16-4.6-.18-.35-.33-.65-.05-.9,1.43-1.18,3.25-1.95,4.65-3.19s2.41-3,3.9-4.1c.12-.07.14.45.2.46Z"/><path d="M132.3,214.56c.38-.27,1.43.06,1.95-.07.33-.07.76-.21.96-.06.48,1.24.66,2.64.87,4.01s.3,2.72.58,4.03c.15,1.72,2.24.9,3.36.85,1.86-.38,2.12-.64,2.39,1.2.06,1.01-1.46,1.1-2.17,1.34-1.77.27-3.67.54-5.43.73-.39-.03-.62-.49-.68-.86-.26-1.8-.19-3.67-.52-5.46s-.73-3.58-.91-5.38c-.04-.21-.45-.29-.41-.33Z"/><path d="M103.63,213.98c.27-.08.9.43,1.33.47.56.15,1.49-.16,1.33.68-.31,1.77-.56,3.55-.85,5.32s-.57,3.54-.89,5.31c-.23.61-.9.47-1.41.45-.48-.11-1.41-.2-1.8-.52.09-1.55.77-3.71,1.14-5.8s.49-4.14.78-5.72c.02-.13.33-.17.38-.2Z"/><path d="M216.62,119.89c.15-2.09.57-3.84,1.7-4.71,1.35-1.04,3.36-.92,4.99-.5s2.89,1.5,3.59,3.08c.58,1.3,1.01,2.94.24,4.87-.81,1.71-2.35,2.83-3.9,3.12-1.63.31-3.56-.2-4.88-1.21s-1.83-2.57-1.77-4.47c.01-.12.02-.09.02-.18Z"/><path d="M14.54,119.88c.04-1.64.46-2.76,1.34-3.67,1-1.02,2.21-1.49,3.62-1.54s3.05-.17,4.15.77c.96.83,1.11,2.37,1.33,3.99.09,1.8-.15,3.16-1.01,4.18-1,1.19-2.45,1.71-3.94,1.8s-3.29.06-4.41-1.01c-.97-.92-1.29-2.54-1.35-4.35.03-.2.27-.09.27-.18Z"/></svg>