<?xml version="1.0" encoding="UTF-8"?>
<svg xmlns="http://www.w3.org/2000/svg" version="1.1" viewBox="0 0 269.5 200.2">
  <!-- Generator: Adobe Illustrator 29.1.0, SVG Export Plug-In . SVG Version: 2.1.0 Build 142)  -->
  <defs>
    <style>
      .stA {
        fill: var(--fang-light);
      }

      .stB {
        fill: rgba(0,0,0,0.25);
        stroke: var(--fang-light);
        stroke-miterlimit: 10;
      }
    </style>
  </defs>
  <g id="pause">
      <rect class="stB" x="96.2" y="173.3" width="17.4" height="17.4" rx="2" ry="2" transform="translate(-2.3 1.3) rotate(-.7)"/>
        <rect class="stA" x="101.4" y="177.4" width="2.3" height="9.2" transform="translate(-2.3 1.3) rotate(-.7)"/>
        <rect class="stA" x="106" y="177.3" width="2.3" height="9.2" transform="translate(-2.3 1.4) rotate(-.7)"/>
  </g>
  <g id="play">
      <rect class="stB" x="59.4" y="174.9" width="17.4" height="17.4" rx="2" ry="2" transform="translate(-2.3 .9) rotate(-.7)"/>
      <polygon class="stA" points="65.2 179.1 72.2 183.5 65.3 188 65.2 179.1"/>
  </g>
  <g id="next">
      <rect class="stB" x="78" y="174" width="17.4" height="17.4" rx="2" ry="2" transform="translate(-2.3 1.1) rotate(-.7)"/>
        <polygon class="stA" points="87.1 185.9 91.3 182.6 87.1 179.4 87.1 185.9"/>
        <polygon class="stA" points="82 186 86.2 182.7 81.9 179.5 82 186"/>
  </g>
  <g id="prev">
      <rect class="stB" x="22.7" y="176.3" width="17.4" height="17.4" rx="2" ry="2" transform="translate(-1.9 .3) rotate(-.6)"/>
        <polygon class="stA" points="30.9 181.7 26.8 185 31 188.2 30.9 181.7"/>
        <polygon class="stA" points="36 181.7 31.9 185 36.1 188.2 36 181.7"/>
  </g>
</svg>