<?xml version="1.0" encoding="UTF-8"?>
<svg id="Layer_1" xmlns="http://www.w3.org/2000/svg" version="1.1" viewBox="0 0 24 24">
  <!-- Generator: Adobe Illustrator 29.1.0, SVG Export Plug-In . SVG Version: 2.1.0 Build 142)  -->
  <defs>
    <style>
      .stTouch {
        fill: var(--fang-light);
      }
    </style>
  </defs>
  <path class="stTouch" d="M10.5,22c-.5,0-.9-.1-1.3-.3s-.8-.5-1-.9l-5.5-6.9.5-.5c.3-.4.7-.6,1.2-.6s.9,0,1.3.3l1.9,1.1V6c0-.3,0-.5.3-.7s.4-.3.7-.3.5,0,.7.3.3.4.3.7v11.8l-2.4-1.5,2.6,3.3c.1.1.2.2.4.3s.3.1.4.1h5.5c.6,0,1-.2,1.4-.6s.6-.9.6-1.4v-4c0-.3,0-.5-.3-.7s-.4-.3-.7-.3h-5.5v-2h5.5c.8,0,1.5.3,2.1.9s.9,1.3.9,2.1v4c0,1.1-.4,2-1.2,2.8-.8.8-1.7,1.2-2.8,1.2h-5.5ZM4.2,8.5c-.2-.4-.4-.8-.5-1.2s-.2-.9-.2-1.3c0-1.4.5-2.6,1.5-3.5s2.2-1.5,3.5-1.5,2.6.5,3.5,1.5,1.5,2.2,1.5,3.5,0,.9-.2,1.3-.3.8-.5,1.2l-1.7-1c.1-.2.2-.5.3-.7s.1-.5.1-.8c0-.8-.3-1.5-.9-2.1s-1.3-.9-2.1-.9-1.5.3-2.1.9c-.6.6-.9,1.3-.9,2.1s0,.5.1.8.2.5.3.7l-1.7,1Z"/>
</svg>